<svg xmlns="http://www.w3.org/2000/svg" viewBox="0 0 1200 800">
  <defs>
    <linearGradient id="sky" x1="0" y1="0" x2="0" y2="1">
      <stop offset="0%" stop-color="#f7c97f"/>
      <stop offset="55%" stop-color="#f2dfbf"/>
      <stop offset="100%" stop-color="#d6e3d4"/>
    </linearGradient>
    <linearGradient id="lake" x1="0" y1="0" x2="1" y2="1">
      <stop offset="0%" stop-color="#7ea7a0"/>
      <stop offset="100%" stop-color="#476a72"/>
    </linearGradient>
  </defs>
  <rect width="1200" height="800" fill="url(#sky)"/>
  <circle cx="924" cy="162" r="66" fill="#f4e7bf" opacity="0.95"/>
  <path d="M0 446 L160 308 L303 378 L455 239 L608 387 L745 263 L946 431 L1200 302 L1200 800 L0 800 Z" fill="#4f6556"/>
  <path d="M0 507 C148 467 272 458 410 479 C557 502 676 564 835 542 C981 522 1082 470 1200 451 L1200 800 L0 800 Z" fill="url(#lake)"/>
  <path d="M0 553 C159 529 293 523 430 537 C571 551 680 606 846 590 C968 578 1089 548 1200 520" fill="none" stroke="#dbe8e3" stroke-width="14" opacity="0.34"/>
</svg>
