<svg xmlns="http://www.w3.org/2000/svg" viewBox="0 0 1200 900">
  <defs>
    <linearGradient id="market-sky" x1="0" y1="0" x2="0" y2="1">
      <stop offset="0%" stop-color="#1f2840"/>
      <stop offset="100%" stop-color="#152131"/>
    </linearGradient>
  </defs>
  <rect width="1200" height="900" fill="url(#market-sky)"/>
  <rect y="610" width="1200" height="290" fill="#2d2f3d"/>
  <rect x="128" y="286" width="218" height="324" rx="18" fill="#4c4050"/>
  <rect x="386" y="244" width="206" height="366" rx="18" fill="#55485c"/>
  <rect x="644" y="214" width="190" height="396" rx="18" fill="#4b3e53"/>
  <rect x="874" y="266" width="198" height="344" rx="18" fill="#584a5d"/>
  <g fill="#f3c470">
    <rect x="156" y="334" width="164" height="42" rx="12"/>
    <rect x="416" y="300" width="146" height="42" rx="12"/>
    <rect x="678" y="270" width="122" height="42" rx="12"/>
    <rect x="902" y="324" width="142" height="42" rx="12"/>
  </g>
  <g fill="#e07c57">
    <circle cx="240" cy="482" r="32"/>
    <circle cx="490" cy="446" r="36"/>
    <circle cx="744" cy="420" r="28"/>
    <circle cx="978" cy="470" r="34"/>
  </g>
  <path d="M0 710 C166 670 314 670 480 714 C629 754 790 768 1200 690 L1200 900 L0 900 Z" fill="#3b4350"/>
  <g fill="#f6eedf" opacity="0.76">
    <circle cx="186" cy="136" r="4"/>
    <circle cx="280" cy="182" r="3"/>
    <circle cx="542" cy="124" r="4"/>
    <circle cx="700" cy="176" r="3"/>
    <circle cx="944" cy="130" r="4"/>
  </g>
</svg>
